<?xml version="1.0" encoding="utf-8"?>
<!-- Generator: Adobe Illustrator 22.1.0, SVG Export Plug-In . SVG Version: 6.00 Build 0)  -->
<svg version="1.1" id="Layer_1" xmlns="http://www.w3.org/2000/svg" xmlns:xlink="http://www.w3.org/1999/xlink" x="0px" y="0px"
	 viewBox="0 0 288 288" style="enable-background:new 0 0 288 288;" xml:space="preserve">
<style type="text/css">
	.st0{fill:#ED1E24;}
</style>
<g>
	<g>
		<path d="M37.2,137.8c-1.4,2.1-3.2,3.6-5.4,4.6c-2.2,1-4.6,1.4-7.2,1.1c-2.6-0.3-4.9-1.2-6.8-2.6c-1.9-1.5-3.4-3.4-4.3-5.7
			c-0.9-2.3-1.2-4.8-0.9-7.6c0.3-2.4,0.9-4.5,2-6.3c1.1-1.8,2.5-3.3,4.2-4.4l3.8,5.2c-2.2,1.5-3.5,3.4-3.7,5.9
			c-0.2,1.4,0,2.7,0.5,3.9c0.5,1.2,1.3,2.1,2.4,2.9c1.1,0.7,2.3,1.2,3.8,1.3c1.5,0.2,2.8,0,4-0.5c1.2-0.5,2.2-1.3,2.9-2.3
			c0.7-1,1.2-2.3,1.3-3.7c0.3-2.4-0.5-4.6-2.4-6.5l4.8-4.3c1.5,1.4,2.5,3.2,3.2,5.2c0.6,2,0.8,4.2,0.6,6.6
			C39.5,133.3,38.6,135.7,37.2,137.8z"/>
		<path d="M25.3,84.8l24.6,9.5l-2.7,7l-9.6-3.7l-3.7,9.5l9.6,3.7l-2.7,7l-24.6-9.5l2.7-7l9.3,3.6l3.7-9.5l-9.3-3.6L25.3,84.8z"/>
		<path d="M60.4,69.6l4.7,3.4L52.6,90.1L31.3,74.6l12.2-16.7l4.7,3.4L40.3,72l3.6,2.6l6.9-9.5l4.5,3.3l-6.9,9.5l3.9,2.8L60.4,69.6z"
			/>
		<path d="M72.7,56.8l-3.1,2.6l4.4,5.4l-5.8,4.7L51.5,49.2l9.3-7.6c1.8-1.5,3.7-2.5,5.6-3c1.9-0.5,3.6-0.5,5.3,0
			c1.7,0.5,3.1,1.6,4.4,3.1c1.2,1.5,1.9,3,2.1,4.7c0.2,1.7-0.1,3.3-0.8,5l9.7,2.8l-6.2,5.1L72.7,56.8z M67.5,44.9
			c-1,0-2.1,0.4-3.3,1.4L61,49l4.9,6l3.2-2.6c1.2-1,1.9-2,2-3c0.2-1-0.1-2-0.9-2.9C69.5,45.5,68.6,45,67.5,44.9z"/>
		<path d="M98.2,41.2l-3.7,1.7l2.9,6.4l-6.8,3L79.8,28.1l11-4.9c2.2-1,4.2-1.5,6.2-1.4c1.9,0,3.6,0.5,5.1,1.4c1.5,1,2.6,2.3,3.4,4.2
			c0.8,1.7,1,3.4,0.8,5.1c-0.2,1.7-0.9,3.2-2.1,4.6l8.6,5.3l-7.3,3.3L98.2,41.2z M96.4,28.3c-1-0.3-2.2-0.1-3.6,0.5L89,30.5l3.1,7.1
			l3.8-1.7c1.4-0.6,2.3-1.4,2.8-2.3c0.4-0.9,0.4-2-0.1-3.1C98.1,29.3,97.4,28.6,96.4,28.3z"/>
		<path d="M124.9,30.6l1.8,9.3l-7.3,1.4l-1.9-9.4l-13.1-14.5l7.7-1.5l8.2,9.1l4.1-11.5l7.1-1.4L124.9,30.6z"/>
		<path d="M212.3,49c0.2,1.4-0.1,2.8-0.9,4.1c-1.2,2-2.9,3.1-5.1,3.2c-2.2,0.2-4.9-0.7-7.9-2.4L186,46.8L199.3,24l11.7,6.8
			c2.9,1.7,4.8,3.5,5.7,5.5c0.9,2,0.8,3.9-0.2,5.7c-0.6,1.1-1.5,1.9-2.5,2.5c-1,0.5-2.2,0.8-3.5,0.7C211.5,46.3,212.1,47.6,212.3,49
			z M205.3,48.6c0.9-1.5,0.2-3-2-4.3l-5.4-3.1l-2.7,4.6l5.4,3.1C202.8,50.3,204.4,50.2,205.3,48.6z M203,32.3l-2.6,4.4l4.4,2.6
			c2.2,1.3,3.7,1.2,4.5-0.3c0.8-1.5,0.2-2.8-2-4.1L203,32.3z"/>
		<path d="M215.8,65.2c-0.7-2.4-0.7-4.8,0-7.2c0.6-2.4,1.9-4.4,3.8-6.2c1.9-1.8,4-2.9,6.4-3.5c2.4-0.5,4.8-0.4,7.2,0.4
			c2.4,0.8,4.5,2.2,6.5,4.2c1.9,2,3.2,4.3,3.9,6.7c0.7,2.4,0.7,4.8,0,7.2c-0.6,2.4-1.9,4.4-3.8,6.2c-1.9,1.8-4,3-6.4,3.5
			c-2.4,0.5-4.8,0.4-7.2-0.4c-2.4-0.8-4.5-2.2-6.5-4.2C217.7,69.9,216.4,67.7,215.8,65.2z M227.3,69.6c1.2,0.4,2.4,0.4,3.7,0
			c1.3-0.3,2.4-1,3.5-2c1.1-1,1.8-2.1,2.2-3.4c0.4-1.2,0.5-2.5,0.2-3.7c-0.3-1.2-0.9-2.3-1.8-3.3c-0.9-1-2-1.6-3.2-2
			c-1.2-0.4-2.4-0.4-3.7,0c-1.3,0.3-2.4,1-3.5,2c-1.1,1-1.8,2.1-2.2,3.4c-0.4,1.2-0.5,2.5-0.2,3.7c0.3,1.2,0.9,2.3,1.8,3.3
			C225.1,68.6,226.1,69.3,227.3,69.6z"/>
		<path d="M242.5,106.8l12.6-6l-13.2-1.3l-1.4-3l7.1-10.8l-12.3,5.8l-2.9-6.2L256.2,74l2.6,5.6L249,94.4l17.6,1.7l2.6,5.6L245.4,113
			L242.5,106.8z"/>
		<path d="M260.7,141.8c-1,1-2.3,1.6-3.9,1.8c-2.3,0.3-4.2-0.4-5.6-2.1c-1.5-1.7-2.4-4.3-2.8-7.8l-1.7-14.2l26.2-3.1l1.6,13.4
			c0.4,3.3,0.1,6-0.9,7.9c-1,1.9-2.6,3-4.7,3.2c-1.2,0.1-2.4,0-3.5-0.5c-1.1-0.5-1.9-1.3-2.7-2.3
			C262.4,139.5,261.7,140.8,260.7,141.8z M256.7,135.9c1.8-0.2,2.5-1.6,2.2-4.2l-0.7-6.2l-5.3,0.6l0.7,6.2
			C253.9,134.9,255,136.1,256.7,135.9z M268.4,124.3l-5.1,0.6l0.6,5.1c0.3,2.5,1.3,3.6,3,3.4c1.7-0.2,2.4-1.5,2.1-4L268.4,124.3z"/>
	</g>
	<path d="M53.2,224.1c-0.4,1.3-1.2,2.5-2.5,3.4c-1.9,1.4-3.9,1.7-6,0.9c-2.1-0.8-4.2-2.6-6.3-5.4l-8.4-11.5l21.4-15.5l7.9,10.9
		c2,2.7,3,5.2,3,7.3c0,2.2-0.8,3.9-2.5,5.1c-1,0.7-2.1,1.1-3.3,1.2c-1.2,0.1-2.3-0.2-3.4-0.7C53.6,221.3,53.6,222.7,53.2,224.1z
		 M47,220.9c1.4-1,1.4-2.6-0.1-4.7l-3.7-5.1l-4.3,3.1l3.7,5.1C44,221.4,45.5,221.9,47,220.9z M51.4,205.1l-4.1,3l3,4.2
		c1.5,2,2.9,2.5,4.3,1.5c1.4-1,1.3-2.5-0.2-4.5L51.4,205.1z"/>
	<path d="M66.3,241.5l-3.2-2.5l-4.4,5.5l-5.8-4.6l16.4-20.7l9.4,7.5c1.9,1.5,3.2,3.1,4.1,4.8c0.9,1.7,1.2,3.4,1.1,5.2
		c-0.2,1.7-0.9,3.4-2.1,4.9c-1.2,1.5-2.6,2.5-4.2,3.1c-1.6,0.6-3.3,0.6-5.1,0.2l-0.7,10l-6.3-5L66.3,241.5z M76.8,233.9
		c-0.2-1-0.9-2-2.1-3l-3.2-2.6l-4.8,6l3.2,2.6c1.2,1,2.3,1.4,3.3,1.4s1.9-0.5,2.7-1.5C76.7,235.9,77,234.9,76.8,233.9z"/>
	<path d="M98.3,262l-10.2-4.4l-3.9,3.9l-7-3l21.2-19.6l6.7,2.9l0.2,28.9l-7.1-3.1L98.3,262z M98.5,256.1l0.3-9.1l-6.5,6.4
		L98.5,256.1z"/>
	<path d="M155.5,250.5L144.6,276l-8-0.7l-3.6-16.5l-6.7,15.5l-8-0.7l-6.1-27.1l7.7,0.7l3.8,17.3l7.1-16.3l6.8,0.6l3.7,17.4l7.1-16.4
		L155.5,250.5z"/>
	<path d="M159.8,248.7l7.3-1.8l4.8,19.9l12.2-3l1.4,5.8l-19.5,4.7L159.8,248.7z"/>
	<path d="M209.6,251.5l2.6,5.2l-19,9.4l-11.8-23.6l18.5-9.2l2.6,5.2l-11.9,5.9l2,4l10.5-5.2l2.5,5l-10.5,5.2l2.2,4.3L209.6,251.5z"
		/>
	<path d="M225.7,237.5l-3.1,2.7l4.6,5.3l-5.6,4.9l-17.4-19.9l9.1-7.9c1.8-1.6,3.6-2.6,5.5-3.2c1.8-0.6,3.6-0.6,5.3-0.1
		c1.7,0.5,3.2,1.5,4.5,3c1.3,1.4,2,3,2.3,4.6c0.3,1.7,0,3.3-0.7,5l9.7,2.5l-6,5.3L225.7,237.5z M220.2,225.7c-1,0-2.1,0.5-3.3,1.5
		l-3.1,2.7l5.1,5.8l3.1-2.7c1.2-1,1.8-2,2-3c0.1-1-0.2-2-1-2.9C222.1,226.2,221.2,225.7,220.2,225.7z"/>
	<path d="M248.3,223.4c-1.6,1.4-3.1,2.3-4.5,2.8l-3.2-5.1c1.3-0.5,2.6-1.3,3.9-2.3c1.3-1,2.3-2.1,3.2-3.4c1.6-2.4,1.8-3.9,0.7-4.8
		c-0.6-0.4-1.3-0.4-2.1,0.1c-0.8,0.5-1.8,1.3-3.2,2.6c-1.5,1.4-2.8,2.5-4,3.3c-1.2,0.8-2.5,1.3-3.9,1.5c-1.4,0.2-2.9-0.3-4.4-1.3
		c-1.3-0.9-2.3-2.1-2.8-3.6s-0.7-3.1-0.3-5c0.4-1.9,1.3-3.8,2.7-5.9c1-1.4,2.1-2.7,3.4-3.9c1.3-1.2,2.6-2.1,3.9-2.7l3.3,5
		c-2.5,1.3-4.5,2.9-5.8,4.9c-0.8,1.2-1.3,2.2-1.3,3s0.3,1.4,0.8,1.8c0.6,0.4,1.2,0.4,2-0.1c0.7-0.5,1.8-1.3,3.1-2.6
		c1.5-1.4,2.8-2.5,4-3.3c1.2-0.8,2.4-1.3,3.9-1.5c1.4-0.2,2.9,0.2,4.4,1.3c1.3,0.9,2.2,2.1,2.8,3.5c0.6,1.5,0.7,3.1,0.3,5
		c-0.4,1.9-1.3,3.9-2.7,5.9C251.2,220.4,249.8,222,248.3,223.4z"/>
	<path class="st0" d="M43.9,179c-1.7-1.5-6.4-5.7-6.8-7.6c-0.5-2,1.6-7.9,2.5-10c0.1-0.2,0-0.4-0.1-0.6c-0.2-0.1-0.4-0.2-0.6,0
		c-1.9,1.2-7.4,4.3-9.4,4.1c-2-0.1-7-4-8.7-5.5c-0.2-0.1-0.4-0.2-0.6,0c-0.2,0.1-0.3,0.3-0.2,0.5c0.6,2.2,1.8,8.3,1,10.2
		c-0.8,1.9-6,5.4-7.9,6.6c-0.2,0.1-0.3,0.3-0.2,0.5c0.1,0.2,0.2,0.4,0.4,0.4c2.3,0.2,8.5,0.8,10,2.2c1.6,1.3,3.3,7.3,3.8,9.5
		c0,0.2,0.2,0.4,0.4,0.4c0,0,0,0,0,0c0.2,0,0.4-0.1,0.4-0.3c0.8-2.1,3.4-7.8,5.2-8.9c1.7-1.1,8-0.9,10.2-0.7c0.2,0,0.4-0.1,0.5-0.3
		S44.1,179.1,43.9,179z"/>
	<path class="st0" d="M275.4,176.9c-1.9-1.2-7.1-4.7-7.9-6.6c-0.8-1.9,0.5-8,1.1-10.2c0.1-0.2,0-0.4-0.2-0.5c-0.2-0.1-0.4-0.1-0.6,0
		c-1.7,1.5-6.7,5.3-8.7,5.4c-2,0.1-7.5-3-9.4-4.2c-0.2-0.1-0.4-0.1-0.6,0c-0.2,0.1-0.2,0.4-0.1,0.6c0.9,2.1,3,8,2.5,10
		c-0.5,2-5.1,6.2-6.9,7.6c-0.2,0.1-0.2,0.4-0.1,0.5c0.1,0.2,0.3,0.3,0.5,0.3c2.3-0.2,8.5-0.3,10.2,0.7c1.7,1.1,4.3,6.8,5.1,8.9
		c0.1,0.2,0.3,0.3,0.4,0.3c0,0,0,0,0,0c0.2,0,0.4-0.2,0.4-0.4c0.5-2.2,2.3-8.2,3.9-9.5c1.6-1.3,7.8-2,10-2.1c0.2,0,0.4-0.2,0.4-0.4
		C275.7,177.3,275.6,177,275.4,176.9z"/>
	<path class="st0" d="M176.6,29.6c-1.9-1.3-6.9-4.9-7.6-6.8c-0.7-1.9,0.8-8,1.4-10.2c0.1-0.2,0-0.4-0.2-0.5c-0.2-0.1-0.4-0.1-0.6,0
		c-1.8,1.4-6.8,5.1-8.9,5.2c-2,0-7.4-3.2-9.2-4.5c-0.2-0.1-0.4-0.1-0.6,0c-0.2,0.1-0.2,0.4-0.2,0.5c0.8,2.1,2.7,8.1,2.2,10
		c-0.6,2-5.3,6-7.1,7.4c-0.2,0.1-0.2,0.3-0.2,0.5s0.3,0.3,0.5,0.3c2.3-0.1,8.5-0.1,10.2,1c1.7,1.1,4.1,6.9,4.8,9.1
		c0.1,0.2,0.2,0.3,0.5,0.3c0,0,0,0,0,0c0.2,0,0.4-0.1,0.4-0.4c0.6-2.2,2.5-8.1,4.2-9.4c1.6-1.3,7.8-1.7,10.1-1.8
		c0.2,0,0.4-0.1,0.4-0.3C176.8,29.9,176.7,29.7,176.6,29.6z"/>
	<path class="st0" d="M189.9,74.3c-17-6.2-34.6,7.4-46.3,7.4s-29.3-13.6-46.3-7.4c-20,7.3-33.6,23.2-33.6,56.3
		c0,44.4,23.6,88.5,41.2,93.1c17.2,4.6,26.1-3.5,38.7-3.5c12.9,0,21.5,8.1,38.7,3.5c17.6-4.7,41.2-48.7,41.2-93.1
		C223.5,95.2,209.9,81.6,189.9,74.3z M201.1,175.4c-4.6,4.3-11.6-4.6-18.6-4c-8.7,0.7-10.2,8.7-9.8,11.3c0.9,5.6,16.5-4.1,13.1,9.8
		c-2.9,11.7-8.3,19.5-10.9,21c-0.8,0.5-3.2-0.3-3.4-1.2c-0.4-1.8-0.2-6.9-1.4-7.2c-1.3-0.3-3.2,3.7-4.6,4.9c-0.6,0.5-5-0.5-5.2-1.5
		c-0.6-2.9-0.6-9.2-1.8-9.3c-1.6-0.2-2.9,5.6-5,7.9c-0.8,0.9-5.6,0.3-6.1-0.8c-0.7-1.6-2.1-9.7-3.8-9.7c-1.8,0-3,8.1-3.8,9.7
		c-0.5,1-5.3,1.6-6.1,0.8c-2.1-2.3-3.5-8.1-5-7.9c-1.2,0.1-1.2,6.4-1.8,9.3c-0.2,1-4.6,2-5.2,1.5c-1.4-1.2-3.3-5.2-4.6-4.9
		c-1.2,0.3-1,5.4-1.4,7.2c-0.2,0.8-2.6,1.7-3.4,1.2c-2.6-1.5-8-9.3-10.9-21c-3.4-13.9,12.3-4.2,13.1-9.8c0.4-2.6-1.1-10.6-9.8-11.3
		c-7-0.6-14,8.3-18.6,4c-4.5-4.2-9.7-22.9-10.8-37.7c-1.6-21.8,5-49.1,27.5-49.4c14.9-0.2,31.2,9.8,40.8,9.8s25.9-10,40.8-9.8
		c22.5,0.3,29.1,27.7,27.5,49.4C210.9,152.5,205.6,171.2,201.1,175.4z"/>
	<path d="M162.6,182.3c0-2.2-15.1-25.6-19-25.6c-3.8,0-18.9,22.9-18.9,25.6c0,2.8,8.6,11.1,11.6,11.1c2.8,0,5.5-9.1,7.3-9.1
		c1.8,0,4.6,9.1,7.4,9.1C153.8,193.4,162.6,184.7,162.6,182.3z"/>
	<path d="M128.6,162.1c1.5-0.1,7-14,8.8-25.4c1-6.5,1.7-13.6,1.1-16.3c-0.5-2.3-43.6-18.6-44.6-17.5c-17.3,19.5-5,61.1-1.6,60
		c1.3-0.4,7.5-3.4,17.1-3.7C120.9,158.8,127.2,162.2,128.6,162.1z"/>
	<path d="M158.6,162.1c-1.5-0.1-7-14-8.8-25.4c-1-6.5-1.7-13.6-1.1-16.3c0.5-2.3,43.6-18.6,44.6-17.5c17.3,19.5,5,61.1,1.6,60
		c-1.3-0.4-7.5-3.4-17.1-3.7C166.3,158.8,160,162.2,158.6,162.1z"/>
	<path d="M170.2,59.2c-0.1,0-0.1,0-0.2,0c-0.3,0.1-27.2,7.6-48.6,2.7c4.1-1.4,17.9-5.5,34.8-21.9c0.1-0.1,0.1-0.2,0.1-0.3
		c-0.1-0.3-1.1-3.2-2-3.8c-1-0.7-4.5-0.6-4.9-0.6c-0.1,0-0.1,0-0.2,0.1c-13.6,18.5-38.2,24.5-38.5,24.6c0,0-0.1,0-0.1,0.1
		c0,0-1.8,2.2-0.1,5c0,0.1,0.1,0.1,0.1,0.1c24,5.7,38.8,3.7,44.4,2.4c-2,1.2-4.8,3.5-7.4,7.4c-5.2,7.7-7.5,17.1-6.9,30.6
		c-5.4-0.7-14.1-2.6-14.2-2.6c-0.1,0-0.2,0-0.3,0.1c0,0.1,0,0.2,0.1,0.3c0.4,0.3,10.8,7.5,17.5,7.5c5.9,0,17-7.2,17.5-7.5
		c0.1-0.1,0.1-0.2,0.1-0.3c0-0.1-0.2-0.2-0.3-0.1c-0.1,0-9.3,2-14.9,2.6c-0.7-8.8-0.8-35,25.5-40.4c0.1,0,0.1-0.1,0.2-0.1
		C173.6,60.8,170.3,59.2,170.2,59.2z"/>
	<path d="M144,4.3c77.2,0,139.7,62.6,139.7,139.7S221.2,283.7,144,283.7S4.3,221.2,4.3,144S66.8,4.3,144,4.3 M144,0
		C64.6,0,0,64.6,0,144s64.6,144,144,144s144-64.6,144-144S223.4,0,144,0L144,0z"/>
	<path d="M144,241.9c-54,0-97.9-43.9-97.9-97.9S90,46.1,144,46.1S241.9,90,241.9,144S198,241.9,144,241.9z M144,47.7
		c-53.1,0-96.3,43.2-96.3,96.3s43.2,96.3,96.3,96.3c53.1,0,96.3-43.2,96.3-96.3S197.1,47.7,144,47.7z"/>
</g>
</svg>
